ply
format ascii 1.0
comment Created by Blender 2.78 (sub 0) - www.blender.org, source file: ' Wooden wardrobe.blend'
element vertex 20
property float x
property float y
property float z
property float nx
property float ny
property float nz
element face 18
property list uchar uint vertex_indices
end_header
-1.316585 -0.627499 -0.072460 0.577349 -0.577349 0.577349
-1.316585 -0.627499 4.584845 0.577349 -0.577349 -0.577349
-1.316585 -0.707161 4.584845 0.674886 0.218055 -0.704947
-1.316585 -0.707161 -0.072460 0.674886 0.218055 0.704947
-1.313159 -0.721005 4.578121 0.551073 0.682089 -0.480667
-1.313159 -0.721005 -0.065736 0.551073 0.682089 0.480667
1.056678 -0.707161 -0.072460 -0.674886 0.218055 0.704947
1.056678 -0.707161 4.584845 -0.674886 0.218055 -0.704947
1.056678 -0.627499 4.584845 -0.577349 -0.577349 -0.577349
1.056678 -0.627499 -0.072460 -0.577349 -0.577349 0.577349
1.053252 -0.721005 4.578121 -0.551073 0.682089 -0.480667
1.035350 -0.732682 4.542990 0.036439 0.974303 0.222236
-1.295257 -0.732682 4.542990 -0.036439 0.974303 0.222236
1.053252 -0.721005 -0.065736 -0.551073 0.682089 0.480667
1.035350 -0.732682 -0.030605 0.036439 0.974303 -0.222236
1.035350 -0.708175 -0.030605 0.577349 0.577349 -0.577349
1.035350 -0.708175 4.542990 0.577349 0.577349 0.577349
-1.295257 -0.732682 -0.030605 -0.036439 0.974303 -0.222236
-1.295257 -0.708175 -0.030605 -0.577349 0.577349 -0.577349
-1.295257 -0.708175 4.542990 -0.577349 0.577349 0.577349
4 0 1 2 3
4 3 2 4 5
4 6 7 8 9
4 1 0 9 8
4 9 0 3 6
4 7 2 1 8
4 4 10 11 12
4 7 6 13 10
4 6 3 5 13
4 2 7 10 4
4 11 14 15 16
4 5 4 12 17
4 10 13 14 11
4 13 5 17 14
4 18 19 16 15
4 14 17 18 15
4 12 11 16 19
4 17 12 19 18
