ply
format ascii 1.0
comment Created by Blender 2.73 (sub 0) - www.blender.org, source file: 'Sofa.blend'
element vertex 32
property float x
property float y
property float z
property float nx
property float ny
property float nz
element face 30
property list uchar uint vertex_indices
end_header
-0.410777 2.065117 3.437012 0.000000 0.000000 1.000000
0.410774 2.065118 3.437012 0.000000 0.000000 1.000000
0.000000 2.105575 3.437012 0.000000 0.000000 1.000000
1.169793 1.750723 3.437012 0.000000 0.000000 1.000000
0.805766 1.945299 3.437012 0.000000 0.000000 1.000000
1.750721 1.169797 3.437012 0.000000 0.000000 1.000000
1.488865 1.488868 3.437012 0.000000 0.000000 1.000000
2.065117 0.410780 3.437012 0.000000 0.000000 1.000000
1.945297 0.805771 3.437012 0.000000 0.000000 1.000000
2.065118 -0.410776 3.437012 0.000000 0.000000 1.000000
2.105575 0.000002 3.437012 0.000000 0.000000 1.000000
1.750723 -1.169794 3.437012 0.000000 0.000000 1.000000
1.945299 -0.805767 3.437012 0.000000 0.000000 1.000000
1.169796 -1.750721 3.437012 0.000000 0.000000 1.000000
1.488868 -1.488866 3.437012 0.000000 0.000000 1.000000
0.410778 -2.065117 3.437012 0.000000 0.000000 1.000000
0.805770 -1.945297 3.437012 0.000000 0.000000 1.000000
-0.410777 -2.065117 3.437012 0.000000 0.000000 1.000000
0.000001 -2.105575 3.437012 0.000000 0.000000 1.000000
-1.169795 -1.750722 3.437012 0.000000 0.000000 1.000000
-0.805768 -1.945298 3.437012 0.000000 0.000000 1.000000
-1.750722 -1.169795 3.437012 0.000000 0.000000 1.000000
-1.488867 -1.488867 3.437012 0.000000 0.000000 1.000000
-2.065117 -0.410777 3.437012 0.000000 0.000000 1.000000
-1.945298 -0.805768 3.437012 0.000000 0.000000 1.000000
-2.065117 0.410777 3.437012 0.000000 -0.000000 1.000000
-2.105575 0.000000 3.437012 0.000000 -0.000000 1.000000
-1.750722 1.169795 3.437012 0.000000 0.000000 1.000000
-1.945298 0.805769 3.437012 0.000000 0.000000 1.000000
-1.169795 1.750722 3.437012 0.000000 0.000000 1.000000
-1.488867 1.488867 3.437012 0.000000 0.000000 1.000000
-0.805769 1.945298 3.437012 0.000000 0.000000 1.000000
3 0 1 2
3 3 4 1
3 5 6 3
3 7 8 5
3 9 10 7
3 11 12 9
3 13 14 11
3 15 16 13
3 17 18 15
3 19 20 17
3 21 22 19
3 23 24 21
3 25 26 23
3 27 28 25
3 29 30 27
3 0 31 29
3 0 3 1
3 7 5 3
3 11 9 7
3 15 13 11
3 19 17 15
3 23 21 19
3 27 25 23
3 0 29 27
3 0 7 3
3 15 11 7
3 23 19 15
3 0 27 23
3 0 15 7
3 0 23 15
